# xmcd
#
# Track frame offsets: 
#        150
#        28397
#        54020
#        79967
#        94870
#        123495
#        146345
#        165352
#        186112
#        221510
#
# Disc length: 3377 seconds
#
# Revision: 1
# Processed by: cddbd v1.5.2PL0 Copyright (c) Steve Scherf et al.
# Submitted via: ExactAudioCopy v1.0b3
#
DISCID=820d2f0a
DTITLE=Crown Heights Affair - Do It Your Way
DYEAR=1976
DGENRE=Funk
TTITLE0=Dancin'
TTITLE1=Searching For Love
TTITLE2=Love Me
TTITLE3=Music Is The World
TTITLE4=Far Out
TTITLE5=Sexy Ways
TTITLE6=French Way
TTITLE7=Dancin' (Radio Edit)
TTITLE8=Dancin' (Disco Edit)
TTITLE9=Dreaming A Dream (Special Disco Version)
EXTD=
EXTT0=
EXTT1=
EXTT2=
EXTT3=
EXTT4=
EXTT5=
EXTT6=
EXTT7=
EXTT8=
EXTT9=
PLAYORDER=
